HIERARCHY
ROOT Hips
{
  OFFSET 5.84602e-005 68.8428 3.50346
  CHANNELS 6 Xposition Yposition Zposition Zrotation Xrotation Yrotation
  JOINT Spine
  {
    OFFSET 0 8.597 -4.6522
    CHANNELS 3 Zrotation Xrotation Yrotation
    JOINT Spine1
    {
      OFFSET 0 7.8454 0.4098
      CHANNELS 3 Zrotation Xrotation Yrotation
      JOINT Spine2
      {
        OFFSET 0 9.7078 -2.1609
        CHANNELS 3 Zrotation Xrotation Yrotation
        JOINT Neck
        {
          OFFSET 0 21.8761 -0.4549
          CHANNELS 3 Zrotation Xrotation Yrotation
          JOINT Head
          {
            OFFSET 0 12.3537 3.3602
            CHANNELS 3 Zrotation Xrotation Yrotation
            End Site
            {
              OFFSET 0.0001 18.9506 0.5657
            }
          }
        }
        JOINT LeftShoulder
        {
          OFFSET 2.2086 21.1115 7.2329
          CHANNELS 3 Zrotation Xrotation Yrotation
          JOINT LeftArm
          {
            OFFSET 13.1193 3.0282 -4.8998
            CHANNELS 3 Zrotation Xrotation Yrotation
            JOINT LeftForeArm
            {
              OFFSET 27.4081 -0.0973053 -0.2375
              CHANNELS 3 Zrotation Xrotation Yrotation
              JOINT LeftHand
              {
                OFFSET 22.8641 0.0662994 -0.1369
                CHANNELS 3 Zrotation Xrotation Yrotation
                JOINT LeftHandIndex1
                {
                  OFFSET 8.8614 0.775009 2.4612
                  CHANNELS 3 Zrotation Xrotation Yrotation
                  JOINT LeftHandIndex2
                  {
                    OFFSET 3.3146 -0.808304 0.5841
                    CHANNELS 3 Zrotation Xrotation Yrotation
                    JOINT LeftHandIndex3
                    {
                      OFFSET 2.2628 -0.552002 0.3989
                      CHANNELS 3 Zrotation Xrotation Yrotation
                      End Site
                      {
                        OFFSET 1.6102 -0.4807 0.2612
                      }
                    }
                  }
                }
                JOINT LeftHandMiddle1
                {
                  OFFSET 8.9937 0.895004 0.2143
                  CHANNELS 3 Zrotation Xrotation Yrotation
                  JOINT LeftHandMiddle2
                  {
                    OFFSET 4.0984 0.0113983 -0.0242
                    CHANNELS 3 Zrotation Xrotation Yrotation
                    JOINT LeftHandMiddle3
                    {
                      OFFSET 2.2716 0.00689697 -0.0138001
                      CHANNELS 3 Zrotation Xrotation Yrotation
                      End Site
                      {
                        OFFSET 2.0404 -0.1441 0.0027
                      }
                    }
                  }
                }
                JOINT LeftHandRing1
                {
                  OFFSET 8.5234 0.597198 -2.0164
                  CHANNELS 3 Zrotation Xrotation Yrotation
                  JOINT LeftHandRing2
                  {
                    OFFSET 3.7188 -0.188293 -0.2328
                    CHANNELS 3 Zrotation Xrotation Yrotation
                    JOINT LeftHandRing3
                    {
                      OFFSET 2.1191 -0.106598 -0.1332
                      CHANNELS 3 Zrotation Xrotation Yrotation
                      End Site
                      {
                        OFFSET 1.8737 -0.2304 -0.0886
                      }
                    }
                  }
                }
                JOINT LeftHandPinky1
                {
                  OFFSET 7.9094 -0.601089 -3.4825
                  CHANNELS 3 Zrotation Xrotation Yrotation
                  JOINT LeftHandPinky2
                  {
                    OFFSET 2.2874 -0.477005 -0.6314
                    CHANNELS 3 Zrotation Xrotation Yrotation
                    JOINT LeftHandPinky3
                    {
                      OFFSET 1.6774 -0.349396 -0.4633
                      CHANNELS 3 Zrotation Xrotation Yrotation
                      End Site
                      {
                        OFFSET 1.4888 -0.4091 -0.3416
                      }
                    }
                  }
                }
                JOINT LeftHandThumb1
                {
                  OFFSET 1.833 -1.3875 1.3896
                  CHANNELS 3 Zrotation Xrotation Yrotation
                  JOINT LeftHandThumb2
                  {
                    OFFSET 3.4129 -1.121 2.5732
                    CHANNELS 3 Zrotation Xrotation Yrotation
                    JOINT LeftHandThumb3
                    {
                      OFFSET 2.2474 -0.804199 1.6192
                      CHANNELS 3 Zrotation Xrotation Yrotation
                      End Site
                      {
                        OFFSET 1.6527 -0.5689 1.1317
                      }
                    }
                  }
                }
              }
            }
          }
        }
        JOINT RightShoulder
        {
          OFFSET -2.2086 21.1115 7.2329
          CHANNELS 3 Zrotation Xrotation Yrotation
          JOINT RightArm
          {
            OFFSET -13.1216 3.0287 -4.9007
            CHANNELS 3 Zrotation Xrotation Yrotation
            JOINT RightForeArm
            {
              OFFSET -27.4081 -0.0973053 -0.2375
              CHANNELS 3 Zrotation Xrotation Yrotation
              JOINT RightHand
              {
                OFFSET -22.8641 0.0664063 -0.1369
                CHANNELS 3 Zrotation Xrotation Yrotation
                JOINT RightHandIndex1
                {
                  OFFSET -8.8614 0.774994 2.4612
                  CHANNELS 3 Zrotation Xrotation Yrotation
                  JOINT RightHandIndex2
                  {
                    OFFSET -3.3146 -0.808304 0.5841
                    CHANNELS 3 Zrotation Xrotation Yrotation
                    JOINT RightHandIndex3
                    {
                      OFFSET -2.2628 -0.552002 0.3989
                      CHANNELS 3 Zrotation Xrotation Yrotation
                      End Site
                      {
                        OFFSET -1.6102 -0.4807 0.2612
                      }
                    }
                  }
                }
                JOINT RightHandMiddle1
                {
                  OFFSET -8.9937 0.894989 0.2143
                  CHANNELS 3 Zrotation Xrotation Yrotation
                  JOINT RightHandMiddle2
                  {
                    OFFSET -4.0984 0.0113983 -0.0242
                    CHANNELS 3 Zrotation Xrotation Yrotation
                    JOINT RightHandMiddle3
                    {
                      OFFSET -2.2716 0.00691223 -0.0138001
                      CHANNELS 3 Zrotation Xrotation Yrotation
                      End Site
                      {
                        OFFSET -2.0404 -0.1441 0.0027
                      }
                    }
                  }
                }
                JOINT RightHandRing1
                {
                  OFFSET -8.5234 0.597198 -2.0164
                  CHANNELS 3 Zrotation Xrotation Yrotation
                  JOINT RightHandRing2
                  {
                    OFFSET -3.7188 -0.188309 -0.2328
                    CHANNELS 3 Zrotation Xrotation Yrotation
                    JOINT RightHandRing3
                    {
                      OFFSET -2.1191 -0.106598 -0.1332
                      CHANNELS 3 Zrotation Xrotation Yrotation
                      End Site
                      {
                        OFFSET -1.8737 -0.2304 -0.0886
                      }
                    }
                  }
                }
                JOINT RightHandPinky1
                {
                  OFFSET -7.9094 -0.601105 -3.4825
                  CHANNELS 3 Zrotation Xrotation Yrotation
                  JOINT RightHandPinky2
                  {
                    OFFSET -2.2874 -0.477005 -0.6314
                    CHANNELS 3 Zrotation Xrotation Yrotation
                    JOINT RightHandPinky3
                    {
                      OFFSET -1.6774 -0.349396 -0.4633
                      CHANNELS 3 Zrotation Xrotation Yrotation
                      End Site
                      {
                        OFFSET -1.4888 -0.4091 -0.3416
                      }
                    }
                  }
                }
                JOINT RightHandThumb1
                {
                  OFFSET -1.833 -1.38751 1.3896
                  CHANNELS 3 Zrotation Xrotation Yrotation
                  JOINT RightHandThumb2
                  {
                    OFFSET -3.41299 -1.12099 2.5732
                    CHANNELS 3 Zrotation Xrotation Yrotation
                    JOINT RightHandThumb3
                    {
                      OFFSET -2.24741 -0.804108 1.6192
                      CHANNELS 3 Zrotation Xrotation Yrotation
                      End Site
                      {
                        OFFSET -1.6527 -0.5689 1.1317
                      }
                    }
                  }
                }
              }
            }
          }
        }
      }
    }
  }
  JOINT RightUpLeg
  {
    OFFSET -9.1966 3.8861 -0.7581
    CHANNELS 3 Zrotation Xrotation Yrotation
    JOINT RightLeg
    {
      OFFSET -0.7359 -41.0265 0
      CHANNELS 3 Zrotation Xrotation Yrotation
      JOINT RightFoot
      {
        OFFSET 0 -40.2855 0
        CHANNELS 3 Zrotation Xrotation Yrotation
        JOINT RightToeBase
        {
          OFFSET 0 -5.6122 11.7359
          CHANNELS 3 Zrotation Xrotation Yrotation
          End Site
          {
            OFFSET 0 0 7.8731
          }
        }
      }
    }
  }
  JOINT LeftUpLeg
  {
    OFFSET 9.1965 3.8864 -0.7581
    CHANNELS 3 Zrotation Xrotation Yrotation
    JOINT LeftLeg
    {
      OFFSET 0.7359 -41.0268 0
      CHANNELS 3 Zrotation Xrotation Yrotation
      JOINT LeftFoot
      {
        OFFSET 0 -40.2855 0
        CHANNELS 3 Zrotation Xrotation Yrotation
        JOINT LeftToeBase
        {
          OFFSET 0 -5.6122 11.7359
          CHANNELS 3 Zrotation Xrotation Yrotation
          End Site
          {
            OFFSET 0 0 7.8731
          }
        }
      }
    }
  }
}
MOTION
Frames:	5
Frame Time:	0.0333333
5.84602e-005 68.8428 3.50346 0 0 -0 0 0 -0 0 0 -0 0 0 -0 0 0 -0 0 0 -0 0 0 -0 0 0 -0 0 0 -0 0 0 -0 0 0 -0 0 0 -0 0 0 -0 0 0 -0 -0.0146107 -8.87603e-005 -2.63497e-007 2.99804e-018 -2.42657e-020 -1.42182e-022 0 0 -0 -0.0187562 -0.001176 5.858e-005 5.06224e-018 3.88251e-019 1.21329e-020 0 0 -0 -0.012269 -0.00324817 0.000675346 -1.74678e-018 3.88251e-019 -0 0 0 -0 0 0 -0 0 0 -0 0 0 -0 0 0 -0 0 0 -0 0 0 -0 0 0 -0 0 0 -0 0 0 -0 0 0 -0 0.0149955 -9.10982e-005 2.64101e-007 -9.69331e-018 1.21329e-020 -4.7394e-023 0 0 -0 0.0189956 -0.00119102 -5.96516e-005 -5.41541e-019 0 2.42657e-020 0 0 -0 0.0122698 -0.00324857 -0.000673756 -2.00796e-019 0 -1.94126e-019 0 0 -0 0 0 -0 0 0 -0 3.39842 1.33031 -0.0637918 -5.65207e-008 0.834868 -0.000436188 -3.39935 -2.16518 -0.0642563 -8.89002e-024 -1.18485e-023 -1.48106e-024 -3.39844 1.35642 0.0640283 -3.18788e-007 0.782166 -0.000588827 3.39931 -2.13858 0.0634662 1.1399e-023 0 -0 
39.7424 21.3502 2.59343 0.215919 -51.9965 -179.545 -0.215526 12.2918 -0.0978566 -0.424193 24.5837 -0.152544 -0.424193 24.5838 -0.152544 -4.47768e-006 -32.9998 -1.50869e-006 3.66441e-007 -15.0017 1.71902e-007 8.10306 -26.669 -47.1459 1.08028 -4.84162 -22.8359 0.981313 -11.8695 -4.99621 63.8161 -13.8395 1.12893 4.24738e-007 1.84392e-007 1.22242e-006 -1.59028e-015 7.95139e-016 6.36111e-015 -1.59028e-015 3.18055e-015 3.18055e-015 4.24738e-007 1.84392e-007 1.22242e-006 -0.0146423 -8.83395e-005 9.26835e-006 3.18055e-015 -3.97569e-016 4.77083e-015 4.24738e-007 1.84392e-007 1.22242e-006 -0.0187711 -0.00117577 4.57538e-005 -1.59028e-015 -5.1684e-015 -6.36111e-015 4.24738e-007 1.84392e-007 1.22242e-006 -0.012258 -0.00324512 0.000682903 4.77083e-015 -7.15625e-015 3.18055e-015 4.24738e-007 1.84392e-007 1.22242e-006 -1.59028e-015 7.95139e-016 6.36111e-015 -1.59028e-015 3.18055e-015 3.18055e-015 -4.94838 -24.5265 37.0986 -1.48267 -4.19738 43.9035 -7.52371 -12.3129 4.06546 -61.9816 -4.54806 -4.46533 6.60585e-007 -5.30099e-007 5.0033e-008 1.64639e-007 -6.00071e-007 -4.23832e-006 6.60585e-007 -5.30099e-007 5.0033e-008 6.60585e-007 -5.30099e-007 5.0033e-008 0.0150402 -9.10524e-005 4.3565e-007 6.60572e-007 -5.30092e-007 5.01021e-008 6.60585e-007 -5.30099e-007 5.0033e-008 0.0189893 -0.00118953 -5.95558e-005 6.6057e-007 -5.30089e-007 5.0114e-008 6.60585e-007 -5.30099e-007 5.0033e-008 0.0122717 -0.00324807 -0.000680177 6.60579e-007 -5.30087e-007 5.00716e-008 6.60585e-007 -5.30099e-007 5.0033e-008 1.64639e-007 -6.00071e-007 -4.23832e-006 6.60585e-007 -5.30099e-007 5.0033e-008 -141.912 -21.2614 -171.386 -131.375 70.0671 129.513 -15.7915 -5.58819 -3.50802 1.80311e-006 -5.04062e-008 -5.2522e-008 141.923 -21.2765 171.378 131.447 70.071 -129.59 15.7703 -5.60625 3.49133 4.97542e-007 6.93129e-007 -3.37714e-006 
39.7424 21.3494 2.83441 0.215919 -51.9965 -179.545 -0.216021 12.2699 -0.0974925 -0.425292 24.5398 -0.151752 -0.425292 24.5398 -0.151752 0.06066 -32.7405 0.0102097 2.60436e-007 -14.4248 1.78875e-007 7.86005 -26.5389 -45.2331 1.12064 -4.79177 -24.8716 1.4784 -11.8842 -5.40643 63.3161 -13.3771 1.36922 4.24267e-007 1.84468e-007 1.22189e-006 3.18055e-015 1.19271e-015 -0 1.10348e-032 3.97569e-016 -1.59028e-015 4.24267e-007 1.84468e-007 1.22189e-006 -0.0146088 -8.82469e-005 2.48103e-006 1.59028e-015 -7.95139e-016 1.59028e-015 4.24267e-007 1.84468e-007 1.22189e-006 -0.0187248 -0.00117399 5.79652e-005 -1.59028e-015 -1.59028e-015 1.59028e-015 4.24267e-007 1.84468e-007 1.22189e-006 -0.0122244 -0.00323782 0.000685366 4.23265e-007 1.84061e-007 1.22196e-006 4.24267e-007 1.84468e-007 1.22189e-006 3.18055e-015 1.19271e-015 -0 1.10348e-032 3.97569e-016 -1.59028e-015 -4.71897 -24.5748 35.5833 -1.52565 -4.18538 45.2785 -7.65616 -12.32 4.78165 -61.6142 -4.09037 -4.74827 1.63706e-007 -5.99047e-007 -4.23628e-006 -2.93916e-007 -8.23743e-007 -9.54801e-007 1.63706e-007 -5.99047e-007 -4.23628e-006 1.63706e-007 -5.99047e-007 -4.23628e-006 0.0149454 -9.12734e-005 2.64088e-007 1.62998e-007 -5.99596e-007 -4.2362e-006 1.63706e-007 -5.99047e-007 -4.23628e-006 0.0190212 -0.0011909 -5.03452e-005 1.62765e-007 -5.99694e-007 -4.23618e-006 1.63706e-007 -5.99047e-007 -4.23628e-006 0.0121611 -0.0032217 -0.000682651 1.63017e-007 -5.99344e-007 -4.23619e-006 1.63706e-007 -5.99047e-007 -4.23628e-006 -2.93916e-007 -8.23743e-007 -9.54801e-007 1.63706e-007 -5.99047e-007 -4.23628e-006 -142.079 -21.3216 -171.491 -131.408 70.0577 129.54 -15.8237 -5.26897 -3.61366 1.87169e-006 -2.50393e-007 -7.88845e-008 142.09 -21.3358 171.484 131.481 70.0616 -129.618 15.8034 -5.286 3.59771 -1.66391e-006 3.56396e-007 -1.31627e-008 
39.7424 21.3486 3.07538 0.215919 -51.9965 -179.545 -0.216368 12.2479 -0.0970479 -0.426101 24.4957 -0.150828 -0.426101 24.4956 -0.150828 0.121153 -32.4804 0.0200754 -2.02094e-008 -13.847 5.98047e-008 7.61126 -26.4154 -43.3119 1.16297 -4.74315 -26.9178 1.97569 -11.9024 -5.81675 62.8147 -12.9165 1.61336 1.59028e-015 1.19271e-015 -4.77083e-015 -2.59581e-007 3.34124e-007 5.28698e-008 1.28003e-030 2.3059e-014 -3.18055e-015 1.59028e-015 1.19271e-015 -4.77083e-015 -0.0146175 -8.88207e-005 2.61153e-006 1.76556e-031 -3.18055e-015 3.18055e-015 1.59028e-015 1.19271e-015 -4.77083e-015 -0.0187758 -0.00117753 5.20324e-005 -1.59028e-015 7.95139e-016 -3.18055e-015 1.59028e-015 1.19271e-015 -4.77083e-015 -0.0122597 -0.00324535 0.00067708 -2.20695e-032 7.95139e-016 1.59028e-015 1.59028e-015 1.19271e-015 -4.77083e-015 -2.59581e-007 3.34124e-007 5.28698e-008 1.28003e-030 2.3059e-014 -3.18055e-015 -4.49021 -24.6286 34.0626 -1.56899 -4.17442 46.6567 -7.78855 -12.3287 5.49833 -61.2445 -3.63426 -5.03415 -9.86842e-007 1.72577e-006 8.41902e-006 1.08588e-006 -8.94421e-007 1.15313e-006 -1.05998e-006 1.29242e-006 5.23796e-006 -9.86842e-007 1.72577e-006 8.41902e-006 0.0149637 -9.29443e-005 -1.50975e-005 -9.8541e-007 1.72686e-006 8.4188e-006 -9.86842e-007 1.72577e-006 8.41902e-006 0.0189075 -0.0011852 -5.75247e-005 -1.06061e-006 1.29333e-006 5.23776e-006 -9.86842e-007 1.72577e-006 8.41902e-006 0.0123233 -0.00326071 -0.000673744 -9.85439e-007 1.72636e-006 8.4188e-006 -9.86842e-007 1.72577e-006 8.41902e-006 1.08588e-006 -8.94421e-007 1.15313e-006 -1.05998e-006 1.29242e-006 5.23796e-006 -142.246 -21.3813 -171.596 -131.442 70.0483 129.568 -15.8552 -4.94962 -3.71906 1.4606e-006 9.47507e-007 1.10268e-007 142.257 -21.3948 171.59 131.514 70.0521 -129.646 15.8359 -4.96564 3.70388 3.47171e-007 9.966e-007 -1.5585e-007 
39.7424 21.3478 3.31636 0.215919 -51.9965 -179.545 -0.216718 12.2255 -0.096599 -0.426913 24.4514 -0.149896 -0.426913 24.4514 -0.149896 0.181456 -32.2201 0.029592 -7.75819e-008 -13.2682 -1.96471e-007 7.35709 -26.2989 -41.3833 1.20721 -4.69583 -28.9733 2.47312 -11.9242 -6.22715 62.312 -12.4577 1.86133 -3.64147e-031 4.37326e-015 4.77083e-015 -1.59028e-015 5.56597e-015 -0 -3.18055e-015 3.57812e-015 1.59028e-015 -3.64147e-031 4.37326e-015 4.77083e-015 -0.0146113 -9.05582e-005 2.02678e-006 4.77083e-015 -1.98785e-015 -0 -3.64147e-031 4.37326e-015 4.77083e-015 -0.0187621 -0.0011751 6.00805e-005 -1.59028e-015 -4.77083e-015 -1.59028e-015 -3.64147e-031 4.37326e-015 4.77083e-015 -0.0122381 -0.00324048 0.000676669 1.59028e-015 1.98785e-015 4.77083e-015 -3.64147e-031 4.37326e-015 4.77083e-015 -1.59028e-015 5.56597e-015 -0 -3.18055e-015 3.57812e-015 1.59028e-015 -4.26234 -24.6882 32.5371 -1.61267 -4.16448 48.0378 -7.92088 -12.3391 6.21545 -60.8726 -3.17981 -5.32295 -1.59028e-015 7.15625e-015 -1.59028e-015 1.98626e-031 7.15625e-015 -1.59028e-015 -1.59028e-015 7.15625e-015 -0 -1.59028e-015 7.15625e-015 -1.59028e-015 0.014957 -9.25095e-005 -8.24388e-006 6.36111e-015 -2.42517e-014 1.59028e-015 -1.59028e-015 7.15625e-015 -1.59028e-015 0.0189458 -0.00118821 -6.14886e-005 -1.59028e-015 2.38542e-015 6.36111e-015 -1.59028e-015 7.15625e-015 -1.59028e-015 0.0122579 -0.00324419 -0.000671361 -6.62086e-032 -2.38542e-015 -1.59028e-015 -1.59028e-015 7.15625e-015 -1.59028e-015 1.98626e-031 7.15625e-015 -1.59028e-015 -1.59028e-015 7.15625e-015 -0 -142.414 -21.4407 -171.702 -131.475 70.0387 129.596 -15.8861 -4.63027 -3.82434 1.49189e-006 5.7654e-008 3.24836e-006 142.425 -21.4534 171.696 131.548 70.0426 -129.674 15.8679 -4.64523 3.80987 -1.90842e-006 4.54046e-007 3.2297e-006 
